<mxfile host="Electron" agent="Mozilla/5.0 (X11; Linux x86_64) AppleWebKit/537.36 (KHTML, like Gecko) draw.io/26.0.16 Chrome/132.0.6834.196 Electron/34.2.0 Safari/537.36" version="26.0.16">
  <diagram name="ec2-dynamodb-stepfunctions" id="TsuBpR4cug2uBKovP1E3">
    <mxGraphModel dx="3586" dy="1676" grid="1" gridSize="10" guides="1" tooltips="1" connect="1" arrows="1" fold="1" page="1" pageScale="1" pageWidth="850" pageHeight="1100" math="0" shadow="0">
      <root>
        <mxCell id="0" />
        <mxCell id="1" parent="0" />
        <mxCell id="OHWyew3xRLbBPNJDqq6j-46" value="" style="container=0;collapsible=0;expand=0;recursiveResize=0;html=1;whiteSpace=wrap;strokeColor=#1192E8;fillColor=none;strokeWidth=1" vertex="1" parent="1">
          <mxGeometry x="-600" y="90" width="110" height="715" as="geometry" />
        </mxCell>
        <mxCell id="OHWyew3xRLbBPNJDqq6j-47" value="AWS Cloud" style="points=[[0,0],[0.25,0],[0.5,0],[0.75,0],[1,0],[1,0.25],[1,0.5],[1,0.75],[1,1],[0.75,1],[0.5,1],[0.25,1],[0,1],[0,0.75],[0,0.5],[0,0.25]];outlineConnect=0;gradientColor=none;html=1;whiteSpace=wrap;fontSize=12;fontStyle=0;shape=mxgraph.aws4.group;grIcon=mxgraph.aws4.group_aws_cloud_alt;strokeColor=#232F3E;fillColor=none;verticalAlign=top;align=left;spacingLeft=30;fontColor=#232F3E;dashed=0;labelBackgroundColor=#ffffff;container=0;pointerEvents=0;collapsible=0;recursiveResize=0;" vertex="1" parent="1">
          <mxGeometry x="-630" y="20" width="1170" height="820" as="geometry" />
        </mxCell>
        <mxCell id="OHWyew3xRLbBPNJDqq6j-48" value="AWS Step Functions workflow" style="points=[[0,0],[0.25,0],[0.5,0],[0.75,0],[1,0],[1,0.25],[1,0.5],[1,0.75],[1,1],[0.75,1],[0.5,1],[0.25,1],[0,1],[0,0.75],[0,0.5],[0,0.25]];outlineConnect=0;gradientColor=none;html=1;whiteSpace=wrap;fontSize=12;fontStyle=0;container=1;pointerEvents=0;collapsible=0;recursiveResize=0;shape=mxgraph.aws4.group;grIcon=mxgraph.aws4.group_aws_step_functions_workflow;strokeColor=#CD2264;fillColor=none;verticalAlign=top;align=left;spacingLeft=30;fontColor=#CD2264;dashed=0;" vertex="1" parent="1">
          <mxGeometry x="180" y="90" width="300" height="710" as="geometry" />
        </mxCell>
        <mxCell id="OHWyew3xRLbBPNJDqq6j-49" value="" style="edgeStyle=orthogonalEdgeStyle;rounded=0;orthogonalLoop=1;jettySize=auto;html=1;" edge="1" parent="OHWyew3xRLbBPNJDqq6j-48" source="OHWyew3xRLbBPNJDqq6j-51" target="OHWyew3xRLbBPNJDqq6j-54">
          <mxGeometry relative="1" as="geometry" />
        </mxCell>
        <mxCell id="OHWyew3xRLbBPNJDqq6j-50" value="&lt;div&gt;SQS: SendMessage&amp;nbsp;&amp;nbsp;&lt;/div&gt;" style="edgeLabel;html=1;align=center;verticalAlign=middle;resizable=0;points=[];" vertex="1" connectable="0" parent="OHWyew3xRLbBPNJDqq6j-49">
          <mxGeometry x="-0.1372" y="-3" relative="1" as="geometry">
            <mxPoint as="offset" />
          </mxGeometry>
        </mxCell>
        <mxCell id="OHWyew3xRLbBPNJDqq6j-51" value="" style="sketch=0;points=[[0,0,0],[0.25,0,0],[0.5,0,0],[0.75,0,0],[1,0,0],[0,1,0],[0.25,1,0],[0.5,1,0],[0.75,1,0],[1,1,0],[0,0.25,0],[0,0.5,0],[0,0.75,0],[1,0.25,0],[1,0.5,0],[1,0.75,0]];outlineConnect=0;fontColor=#232F3E;fillColor=#E7157B;strokeColor=#ffffff;dashed=0;verticalLabelPosition=bottom;verticalAlign=top;align=center;html=1;fontSize=12;fontStyle=0;aspect=fixed;shape=mxgraph.aws4.resourceIcon;resIcon=mxgraph.aws4.step_functions;" vertex="1" parent="OHWyew3xRLbBPNJDqq6j-48">
          <mxGeometry x="120" y="45" width="60" height="60" as="geometry" />
        </mxCell>
        <mxCell id="OHWyew3xRLbBPNJDqq6j-52" style="edgeStyle=orthogonalEdgeStyle;rounded=0;orthogonalLoop=1;jettySize=auto;html=1;entryX=0.5;entryY=0;entryDx=0;entryDy=0;" edge="1" parent="OHWyew3xRLbBPNJDqq6j-48" source="OHWyew3xRLbBPNJDqq6j-54" target="OHWyew3xRLbBPNJDqq6j-56">
          <mxGeometry relative="1" as="geometry" />
        </mxCell>
        <mxCell id="OHWyew3xRLbBPNJDqq6j-53" value="Callback Pattern" style="edgeLabel;html=1;align=center;verticalAlign=middle;resizable=0;points=[];" vertex="1" connectable="0" parent="OHWyew3xRLbBPNJDqq6j-52">
          <mxGeometry x="-0.2576" y="3" relative="1" as="geometry">
            <mxPoint as="offset" />
          </mxGeometry>
        </mxCell>
        <mxCell id="OHWyew3xRLbBPNJDqq6j-54" value="" style="sketch=0;points=[[0,0,0],[0.25,0,0],[0.5,0,0],[0.75,0,0],[1,0,0],[0,1,0],[0.25,1,0],[0.5,1,0],[0.75,1,0],[1,1,0],[0,0.25,0],[0,0.5,0],[0,0.75,0],[1,0.25,0],[1,0.5,0],[1,0.75,0]];outlineConnect=0;fontColor=#232F3E;fillColor=#E7157B;strokeColor=#ffffff;dashed=0;verticalLabelPosition=bottom;verticalAlign=top;align=center;html=1;fontSize=12;fontStyle=0;aspect=fixed;shape=mxgraph.aws4.resourceIcon;resIcon=mxgraph.aws4.sqs;" vertex="1" parent="OHWyew3xRLbBPNJDqq6j-48">
          <mxGeometry x="120" y="195" width="60" height="60" as="geometry" />
        </mxCell>
        <mxCell id="OHWyew3xRLbBPNJDqq6j-55" value="" style="group" vertex="1" connectable="0" parent="OHWyew3xRLbBPNJDqq6j-48">
          <mxGeometry x="69.5" y="330" width="161" height="155" as="geometry" />
        </mxCell>
        <mxCell id="OHWyew3xRLbBPNJDqq6j-56" value="" style="rounded=0;whiteSpace=wrap;html=1;" vertex="1" parent="OHWyew3xRLbBPNJDqq6j-55">
          <mxGeometry width="161" height="154.99999999999991" as="geometry" />
        </mxCell>
        <mxCell id="OHWyew3xRLbBPNJDqq6j-57" value="" style="sketch=0;points=[[0,0,0],[0.25,0,0],[0.5,0,0],[0.75,0,0],[1,0,0],[0,1,0],[0.25,1,0],[0.5,1,0],[0.75,1,0],[1,1,0],[0,0.25,0],[0,0.5,0],[0,0.75,0],[1,0.25,0],[1,0.5,0],[1,0.75,0]];outlineConnect=0;fontColor=#232F3E;fillColor=#E7157B;strokeColor=#ffffff;dashed=0;verticalLabelPosition=bottom;verticalAlign=top;align=center;html=1;fontSize=12;fontStyle=0;aspect=fixed;shape=mxgraph.aws4.resourceIcon;resIcon=mxgraph.aws4.step_functions;" vertex="1" parent="OHWyew3xRLbBPNJDqq6j-55">
          <mxGeometry width="21.923178588635093" height="21.923178588635093" as="geometry" />
        </mxCell>
        <mxCell id="OHWyew3xRLbBPNJDqq6j-58" value="" style="endArrow=none;dashed=1;html=1;rounded=0;exitX=0;exitY=0.5;exitDx=0;exitDy=0;entryX=1;entryY=0.5;entryDx=0;entryDy=0;elbow=horizontal;" edge="1" parent="OHWyew3xRLbBPNJDqq6j-55" source="OHWyew3xRLbBPNJDqq6j-56" target="OHWyew3xRLbBPNJDqq6j-56">
          <mxGeometry width="50" height="50" relative="1" as="geometry">
            <mxPoint x="400.00000000000006" y="65.90136054421762" as="sourcePoint" />
            <mxPoint x="450.00000000000006" as="targetPoint" />
          </mxGeometry>
        </mxCell>
        <mxCell id="OHWyew3xRLbBPNJDqq6j-59" value="Wait for Response" style="edgeLabel;html=1;align=center;verticalAlign=middle;resizable=0;points=[];" vertex="1" connectable="0" parent="OHWyew3xRLbBPNJDqq6j-58">
          <mxGeometry x="-0.1979" y="2" relative="1" as="geometry">
            <mxPoint x="16" y="2" as="offset" />
          </mxGeometry>
        </mxCell>
        <mxCell id="OHWyew3xRLbBPNJDqq6j-60" value="Ask Task&lt;div&gt;&lt;br&gt;&lt;/div&gt;" style="text;html=1;align=center;verticalAlign=middle;whiteSpace=wrap;rounded=0;" vertex="1" parent="OHWyew3xRLbBPNJDqq6j-55">
          <mxGeometry x="58.00000000000001" y="6.590136054421767" width="60.00000000000001" height="39.54081632653064" as="geometry" />
        </mxCell>
        <mxCell id="OHWyew3xRLbBPNJDqq6j-61" value="" style="sketch=0;points=[[0,0,0],[0.25,0,0],[0.5,0,0],[0.75,0,0],[1,0,0],[0,1,0],[0.25,1,0],[0.5,1,0],[0.75,1,0],[1,1,0],[0,0.25,0],[0,0.5,0],[0,0.75,0],[1,0.25,0],[1,0.5,0],[1,0.75,0]];outlineConnect=0;fontColor=#232F3E;fillColor=#E7157B;strokeColor=#ffffff;dashed=0;verticalLabelPosition=bottom;verticalAlign=top;align=center;html=1;fontSize=12;fontStyle=0;aspect=fixed;shape=mxgraph.aws4.resourceIcon;resIcon=mxgraph.aws4.step_functions;" vertex="1" parent="OHWyew3xRLbBPNJDqq6j-48">
          <mxGeometry x="120" y="555" width="60" height="60" as="geometry" />
        </mxCell>
        <mxCell id="OHWyew3xRLbBPNJDqq6j-62" style="edgeStyle=orthogonalEdgeStyle;rounded=0;orthogonalLoop=1;jettySize=auto;html=1;entryX=0.5;entryY=0;entryDx=0;entryDy=0;entryPerimeter=0;" edge="1" parent="OHWyew3xRLbBPNJDqq6j-48" source="OHWyew3xRLbBPNJDqq6j-56" target="OHWyew3xRLbBPNJDqq6j-61">
          <mxGeometry relative="1" as="geometry" />
        </mxCell>
        <mxCell id="OHWyew3xRLbBPNJDqq6j-63" value="Init Flow" style="text;html=1;align=center;verticalAlign=middle;resizable=0;points=[];autosize=1;strokeColor=none;fillColor=none;" vertex="1" parent="OHWyew3xRLbBPNJDqq6j-48">
          <mxGeometry x="115" y="25" width="70" height="30" as="geometry" />
        </mxCell>
        <mxCell id="OHWyew3xRLbBPNJDqq6j-64" value="End Flow" style="text;html=1;align=center;verticalAlign=middle;resizable=0;points=[];autosize=1;strokeColor=none;fillColor=none;" vertex="1" parent="OHWyew3xRLbBPNJDqq6j-48">
          <mxGeometry x="115" y="615" width="70" height="30" as="geometry" />
        </mxCell>
        <mxCell id="OHWyew3xRLbBPNJDqq6j-65" value="Region" style="points=[[0,0],[0.25,0],[0.5,0],[0.75,0],[1,0],[1,0.25],[1,0.5],[1,0.75],[1,1],[0.75,1],[0.5,1],[0.25,1],[0,1],[0,0.75],[0,0.5],[0,0.25]];outlineConnect=0;gradientColor=none;html=1;whiteSpace=wrap;fontSize=12;fontStyle=0;container=0;pointerEvents=0;collapsible=0;recursiveResize=0;shape=mxgraph.aws4.group;grIcon=mxgraph.aws4.group_region;strokeColor=#00A4A6;fillColor=none;verticalAlign=top;align=left;spacingLeft=30;fontColor=#147EBA;dashed=1;" vertex="1" parent="1">
          <mxGeometry x="-610" y="50" width="1120" height="770" as="geometry" />
        </mxCell>
        <mxCell id="OHWyew3xRLbBPNJDqq6j-66" value="VPC" style="points=[[0,0],[0.25,0],[0.5,0],[0.75,0],[1,0],[1,0.25],[1,0.5],[1,0.75],[1,1],[0.75,1],[0.5,1],[0.25,1],[0,1],[0,0.75],[0,0.5],[0,0.25]];outlineConnect=0;gradientColor=none;html=1;whiteSpace=wrap;fontSize=12;fontStyle=0;container=1;pointerEvents=0;collapsible=0;recursiveResize=0;shape=mxgraph.aws4.group;grIcon=mxgraph.aws4.group_vpc2;strokeColor=#8C4FFF;fillColor=none;verticalAlign=top;align=left;spacingLeft=30;fontColor=#AAB7B8;dashed=0;" vertex="1" parent="1">
          <mxGeometry x="-460" y="90" width="300" height="710" as="geometry" />
        </mxCell>
        <mxCell id="OHWyew3xRLbBPNJDqq6j-67" value="Availability zone" style="sketch=0;outlineConnect=0;gradientColor=none;html=1;whiteSpace=wrap;fontSize=12;fontStyle=0;shape=mxgraph.aws4.group;grIcon=mxgraph.aws4.group_availability_zone;strokeColor=#545B64;fillColor=none;verticalAlign=top;align=left;spacingLeft=30;fontColor=#545B64;dashed=1;" vertex="1" parent="1">
          <mxGeometry x="-475" y="60" width="290" height="750" as="geometry" />
        </mxCell>
        <mxCell id="OHWyew3xRLbBPNJDqq6j-68" value="Public subnet" style="points=[[0,0],[0.25,0],[0.5,0],[0.75,0],[1,0],[1,0.25],[1,0.5],[1,0.75],[1,1],[0.75,1],[0.5,1],[0.25,1],[0,1],[0,0.75],[0,0.5],[0,0.25]];outlineConnect=0;gradientColor=none;html=1;whiteSpace=wrap;fontSize=12;fontStyle=0;container=0;pointerEvents=0;collapsible=0;recursiveResize=0;shape=mxgraph.aws4.group;grIcon=mxgraph.aws4.group_security_group;grStroke=0;strokeColor=#7AA116;fillColor=#F2F6E8;verticalAlign=top;align=left;spacingLeft=30;fontColor=#248814;dashed=0;" vertex="1" parent="1">
          <mxGeometry x="-430" y="150" width="220" height="130" as="geometry" />
        </mxCell>
        <mxCell id="OHWyew3xRLbBPNJDqq6j-69" value="Private subnet" style="points=[[0,0],[0.25,0],[0.5,0],[0.75,0],[1,0],[1,0.25],[1,0.5],[1,0.75],[1,1],[0.75,1],[0.5,1],[0.25,1],[0,1],[0,0.75],[0,0.5],[0,0.25]];outlineConnect=0;gradientColor=none;html=1;whiteSpace=wrap;fontSize=12;fontStyle=0;container=1;pointerEvents=0;collapsible=0;recursiveResize=0;shape=mxgraph.aws4.group;grIcon=mxgraph.aws4.group_security_group;grStroke=0;strokeColor=#00A4A6;fillColor=#E6F6F7;verticalAlign=top;align=left;spacingLeft=30;fontColor=#147EBA;dashed=0;" vertex="1" parent="1">
          <mxGeometry x="-440" y="500" width="230" height="244" as="geometry" />
        </mxCell>
        <mxCell id="OHWyew3xRLbBPNJDqq6j-70" value="" style="sketch=0;outlineConnect=0;fontColor=#232F3E;gradientColor=none;fillColor=#ED7100;strokeColor=none;dashed=0;verticalLabelPosition=bottom;verticalAlign=top;align=center;html=1;fontSize=12;fontStyle=0;aspect=fixed;pointerEvents=1;shape=mxgraph.aws4.t3_instance;" vertex="1" parent="OHWyew3xRLbBPNJDqq6j-69">
          <mxGeometry x="71.5" y="88.5" width="67" height="67" as="geometry" />
        </mxCell>
        <mxCell id="OHWyew3xRLbBPNJDqq6j-71" value="" style="shape=image;verticalLabelPosition=bottom;labelBackgroundColor=default;verticalAlign=top;aspect=fixed;imageAspect=0;editableCssRules=.*;image=data:image/svg+xml,PHN2ZyB4bWxuczp4bGluaz0iaHR0cDovL3d3dy53My5vcmcvMTk5OS94bGluayIgeG1sbnM9Imh0dHA6Ly93d3cudzMub3JnLzIwMDAvc3ZnIiB3aWR0aD0iMjU2LjcwNjI5ODgyODEyNSIgdmlld0JveD0iLTAuNzA2Mjk2MzI0NzI5OTE5NCAwIDI1Ni43MDYyOTg4MjgxMjUgMjU2IiBwcmVzZXJ2ZUFzcGVjdFJhdGlvPSJ4TWlkWU1pZCIgaGVpZ2h0PSIyNTYiPjxsaW5lYXJHcmFkaWVudCB5Mj0iLTEuOTY0MTg0JSIgeTE9IjEwOC4yMTQ0NTYlIiB4Mj0iMTAxLjMwNDA3OSUiIHgxPSItMTIuNTYzODQ1JSIgaWQ9ImEiPjxzdG9wIHN0b3AtY29sb3I9IiNmNjk5MjMiIG9mZnNldD0iMCIvPjxzdG9wIHN0b3AtY29sb3I9IiNmNzlhMjMiIG9mZnNldD0iLjEwOTk2Ii8+PHN0b3Agc3RvcC1jb2xvcj0iI2U5NzgyNiIgb2Zmc2V0PSIuOTQ1MDIiLz48L2xpbmVhckdyYWRpZW50PjxsaW5lYXJHcmFkaWVudCB5Mj0iLTEuOTY0MTg0JSIgeTE9IjEwOC4yMTQ0NTYlIiB4Mj0iMTAxLjMwNDA3OSUiIHgxPSItMTIuNTYzODQ1JSIgaWQ9ImIiPjxzdG9wIHN0b3AtY29sb3I9IiNmNjk5MjMiIG9mZnNldD0iMCIvPjxzdG9wIHN0b3AtY29sb3I9IiNmNzlhMjMiIG9mZnNldD0iLjA4MDQ3OCIvPjxzdG9wIHN0b3AtY29sb3I9IiNlOTc4MjYiIG9mZnNldD0iLjQxODc0Ii8+PC9saW5lYXJHcmFkaWVudD48bGluZWFyR3JhZGllbnQgeTI9IjEwMC4wNjU1MTclIiB5MT0iLTMuMDU5MTUxJSIgeDI9IjYuNjUyODQyJSIgeDE9Ijc0LjcyNDE1NCUiIGlkPSJjIj48c3RvcCBzdG9wLWNvbG9yPSIjZjZlNDIzIiBvZmZzZXQ9IjAiLz48c3RvcCBzdG9wLWNvbG9yPSIjZjc5YTIzIiBvZmZzZXQ9Ii40MTE5MSIvPjxzdG9wIHN0b3AtY29sb3I9IiNlOTc4MjYiIG9mZnNldD0iLjczMjcxIi8+PC9saW5lYXJHcmFkaWVudD48bWFzayBmaWxsPSIjZmZmIiBpZD0iZCI+PGNpcmNsZSByPSIxMjgiIGZpbGw9IiNmZmYiIGN5PSIxMjguMDAwMTUiIGN4PSIxMjgiLz48L21hc2s+PGNpcmNsZSByPSIxMjMuMTEwNTMxIiBtYXNrPSJ1cmwoI2QpIiBmaWxsPSJ1cmwoI2EpIiBjeT0iMTI3Ljk5NDI4OSIgY3g9IjEyNy45OTQyOSIvPjxwYXRoIG1hc2s9InVybCgjZCkiIGZpbGw9InVybCgjYikiIGQ9Im0xMjggMjU2Yy03MC42OTI0NDggMC0xMjgtNTcuMzA3NTUyLTEyOC0xMjhzNTcuMzA3NTUyLTEyOCAxMjgtMTI4IDEyOCA1Ny4zMDc1NTIgMTI4IDEyOC01Ny4zMDc1NTIgMTI4LTEyOCAxMjh6bTAtOS43Njc5NTNjNjUuMjk3NzU2IDAgMTE4LjIzMjA0Ny01Mi45MzQyOSAxMTguMjMyMDQ3LTExOC4yMzIwNDcgMC02NS4yOTc3NTY2LTUyLjkzNDI5MS0xMTguMjMyMDQ3MTUtMTE4LjIzMjA0Ny0xMTguMjMyMDQ3MTUtNjUuMjk3NzU2NyAwLTExOC4yMzIwNDcxMyA1Mi45MzQyOTA1NS0xMTguMjMyMDQ3MTMgMTE4LjIzMjA0NzE1IDAgNjUuMjk3NzU3IDUyLjkzNDI5MDQzIDExOC4yMzIwNDcgMTE4LjIzMjA0NzEzIDExOC4yMzIwNDd6Ii8+PHBhdGggb3BhY2l0eT0iLjc1IiBtYXNrPSJ1cmwoI2QpIiBmaWxsPSJ1cmwoI2MpIiBkPSJtOTguMDQzNjk0OCA3NS41MTY3NTE5Yy0xLjc1MDY4MjEtLjAwMTk2OTEtMy41MjQxNjY5LjAwOTg0NTctNS4yOTIwNTkzLjA2MTQzNzEtMi4wNTUxODk4LjA2MDY0OTUtNC44MTYzMTU2LjcxMzE4MjUtNy45OTk2MjQ3IDEuNzg0NTMxNyA1My43NzUxOTkyIDQwLjgzNDAyMjMgNzMuMTA4MjAxMiAxMTQuNDk3NTE5MyAzOS44NzUwNTIyIDE3OC41MTQyMDgzIDEuMTI4NjUxLjAyOTM0IDIuMjQ4NzU2LjEyMzA3MSAzLjM4NDU1NS4xMjMwNzEgNjAuNzM2MTAzIDAgMTExLjQ5MjYxNC00Mi4zMjI2OTEgMTI0LjYwOTA0NS05OS4wNzEyOS0zOC41NDE5NDUtNDUuMTc3OTQyLTkwLjgxMjcyMy04MS4zMTM1OTk2LTE1NC41NzczNjItODEuNDEyMDU2NXoiLz48cGF0aCBvcGFjaXR5PSIuNzUiIG1hc2s9InVybCgjZCkiIGZpbGw9IiMyODE3MGIiIGQ9Im04NC43NTIwMTA4IDc3LjM2Nzc0MTljLTE3Ljg1NjU0MDUgNi4wMDk0MTY2LTUxLjkyMjI0MDUgMjcuMTc4MDQ3MS04NC42NzI5NDk4OSA1NS40NDMwNjAxIDIuNDg3MjE4NjcgNjcuMzM0Njg2IDU3LjAyODIxNjI5IDEyMS4zMTI3MDggMTI0LjU0ODAwMjA5IDEyMy4wNzExNDggMzMuMjMzMTQ5LTY0LjAxNjY4OCAxMy45MDA5MzUtMTM3LjY4MDE4Ni0zOS44NzUwNTIyLTE3OC41MTQyMDgxeiIvPjxwYXRoIG1hc2s9InVybCgjZCkiIGZpbGw9IiNmZmYiIGQ9Im0xMjguNzQ3MTk0IDU0LjAwNDUyODRjLTEwLjk4NDg1OCA1LjQ5NTM3MTYgMCAyNy40NjYwNjc5IDAgMjcuNDY2MDY3OS0zMi45NzMwMTUgMjcuNDgzNzI0Ny0yNS45NjcyMDYgNzQuNDI5MTIwNy02NC40MzUzOTU5IDc0LjQyOTEyMDctMjAuOTcwMzQyOSAwLTQyLjI0MjIyNjEtMjQuMDc2Nzk0LTY0LjIzMjczNzE5LTM4LjgyODAzNC0uMjgzMDk2NjkgMy40Nzg5Ny0uNzg1MzU5NzQgNi45NzI0NjMtLjc4NTM1OTc0IDEwLjUyNDQxNCAwIDQ4LjA5NTA0NyAyNi4yNjI4NzQxMyA4OS45MjQzNjMgNjUuNDE5Njc3NzMgMTExLjg5NzIxNyAxMC45NTI2ODMxLTEuMzc5NjAxIDIyLjgzODYzNjQtNC4xMTQ0NDggMzEuMDUwOTkwNy05LjU5MjU1NSA0My4xNDUyNjk0LTI4Ljc2NDgyMSA1My44NTcwMzU0LTgzLjQ5MDk2MSA3MS40ODYzMjc0LTEwOS45MjUwOSAxMC45Nzg5NzItMTYuNDkyIDYyLjQzNDI5Ni0xNS4wNjEwMTggNjUuOTA2NzkyLTIyLjAxMDEyOTQgNS41MDEyNTctMTAuOTkwNzQzMy0xMC45OTA1NDctMjcuNDY2MDY3OS0xNi40OTE4MDQtMjcuNDY2MDY3OWgtNDMuOTU3NDhjLTMuMDcxMjk1IDAtNy44OTcwODMtNS40NTYzMzA2LTEwLjk3NDI2NC01LjQ1NjMzMDZoLTE2LjQ5MTgwNHMtNy4zMDY5NTUtMTEuMDg1MTA4OS0xMy43OTQyNDQtMTEuNTI1OTM5M2MtLjkyOTkwMy0uMDY2MTE0Ny0xLjgzMDYzMy4wNTI1Nzc5LTIuNzAwNjk5LjQ4NzMyNjZ6Ii8+PC9zdmc+;" vertex="1" parent="OHWyew3xRLbBPNJDqq6j-69">
          <mxGeometry x="120" y="134" width="21.62" height="21.53" as="geometry" />
        </mxCell>
        <mxCell id="OHWyew3xRLbBPNJDqq6j-72" value="" style="sketch=0;points=[[0,0,0],[0.25,0,0],[0.5,0,0],[0.75,0,0],[1,0,0],[0,1,0],[0.25,1,0],[0.5,1,0],[0.75,1,0],[1,1,0],[0,0.25,0],[0,0.5,0],[0,0.75,0],[1,0.25,0],[1,0.5,0],[1,0.75,0]];outlineConnect=0;fontColor=#232F3E;fillColor=#C925D1;strokeColor=#ffffff;dashed=0;verticalLabelPosition=bottom;verticalAlign=top;align=center;html=1;fontSize=12;fontStyle=0;aspect=fixed;shape=mxgraph.aws4.resourceIcon;resIcon=mxgraph.aws4.dynamodb;" vertex="1" parent="1">
          <mxGeometry x="20" y="370" width="78" height="78" as="geometry" />
        </mxCell>
        <mxCell id="OHWyew3xRLbBPNJDqq6j-73" style="rounded=0;orthogonalLoop=1;jettySize=auto;html=1;exitX=1.022;exitY=0.142;exitDx=0;exitDy=0;exitPerimeter=0;edgeStyle=orthogonalEdgeStyle;entryX=0;entryY=0.25;entryDx=0;entryDy=0;entryPerimeter=0;dashed=1;dashPattern=1 1;" edge="1" parent="1" source="OHWyew3xRLbBPNJDqq6j-70" target="OHWyew3xRLbBPNJDqq6j-72">
          <mxGeometry relative="1" as="geometry">
            <mxPoint x="-20" y="409" as="targetPoint" />
            <Array as="points">
              <mxPoint x="-90" y="598" />
              <mxPoint x="-90" y="390" />
              <mxPoint x="-10" y="390" />
            </Array>
          </mxGeometry>
        </mxCell>
        <mxCell id="OHWyew3xRLbBPNJDqq6j-74" value="1 - GetItem" style="edgeLabel;html=1;align=center;verticalAlign=middle;resizable=0;points=[];" vertex="1" connectable="0" parent="OHWyew3xRLbBPNJDqq6j-73">
          <mxGeometry x="0.1552" y="2" relative="1" as="geometry">
            <mxPoint as="offset" />
          </mxGeometry>
        </mxCell>
        <mxCell id="OHWyew3xRLbBPNJDqq6j-75" value="" style="endArrow=classic;html=1;rounded=0;exitX=0;exitY=0.5;exitDx=0;exitDy=0;exitPerimeter=0;dashed=1;dashPattern=1 1;" edge="1" parent="1" source="OHWyew3xRLbBPNJDqq6j-72" target="OHWyew3xRLbBPNJDqq6j-70">
          <mxGeometry width="50" height="50" relative="1" as="geometry">
            <mxPoint y="520" as="sourcePoint" />
            <mxPoint x="50" y="470" as="targetPoint" />
            <Array as="points">
              <mxPoint x="-60" y="409" />
              <mxPoint x="-60" y="520" />
              <mxPoint x="-60" y="620" />
            </Array>
          </mxGeometry>
        </mxCell>
        <mxCell id="OHWyew3xRLbBPNJDqq6j-76" value="2 -Return Item" style="edgeLabel;html=1;align=center;verticalAlign=middle;resizable=0;points=[];" vertex="1" connectable="0" parent="OHWyew3xRLbBPNJDqq6j-75">
          <mxGeometry x="0.2836" relative="1" as="geometry">
            <mxPoint as="offset" />
          </mxGeometry>
        </mxCell>
        <mxCell id="OHWyew3xRLbBPNJDqq6j-77" value="" style="endArrow=classic;html=1;rounded=0;entryX=0;entryY=0.5;entryDx=0;entryDy=0;exitX=0.966;exitY=0.948;exitDx=0;exitDy=0;exitPerimeter=0;dashed=1;dashPattern=1 1;" edge="1" parent="1" source="OHWyew3xRLbBPNJDqq6j-70" target="OHWyew3xRLbBPNJDqq6j-56">
          <mxGeometry width="50" height="50" relative="1" as="geometry">
            <mxPoint x="80" y="590" as="sourcePoint" />
            <mxPoint x="130" y="540" as="targetPoint" />
            <Array as="points">
              <mxPoint x="-20" y="650" />
            </Array>
          </mxGeometry>
        </mxCell>
        <mxCell id="OHWyew3xRLbBPNJDqq6j-78" value="3 - Callback to State Machine" style="edgeLabel;html=1;align=center;verticalAlign=middle;resizable=0;points=[];" vertex="1" connectable="0" parent="OHWyew3xRLbBPNJDqq6j-77">
          <mxGeometry x="0.2611" relative="1" as="geometry">
            <mxPoint as="offset" />
          </mxGeometry>
        </mxCell>
        <mxCell id="OHWyew3xRLbBPNJDqq6j-79" value="" style="endArrow=classic;html=1;rounded=0;exitX=0.985;exitY=0.687;exitDx=0;exitDy=0;exitPerimeter=0;entryX=0.5;entryY=1;entryDx=0;entryDy=0;entryPerimeter=0;dashed=1;dashPattern=1 1;" edge="1" parent="1" source="OHWyew3xRLbBPNJDqq6j-70" target="OHWyew3xRLbBPNJDqq6j-72">
          <mxGeometry width="50" height="50" relative="1" as="geometry">
            <mxPoint x="80" y="590" as="sourcePoint" />
            <mxPoint x="130" y="540" as="targetPoint" />
            <Array as="points">
              <mxPoint x="-30" y="630" />
            </Array>
          </mxGeometry>
        </mxCell>
        <mxCell id="OHWyew3xRLbBPNJDqq6j-80" value="4 - Update Status Item" style="edgeLabel;html=1;align=center;verticalAlign=middle;resizable=0;points=[];" vertex="1" connectable="0" parent="OHWyew3xRLbBPNJDqq6j-79">
          <mxGeometry x="0.6104" y="1" relative="1" as="geometry">
            <mxPoint as="offset" />
          </mxGeometry>
        </mxCell>
        <mxCell id="OHWyew3xRLbBPNJDqq6j-81" value="" style="sketch=0;outlineConnect=0;fontColor=#232F3E;gradientColor=none;fillColor=#8C4FFF;strokeColor=none;dashed=0;verticalLabelPosition=bottom;verticalAlign=top;align=center;html=1;fontSize=12;fontStyle=0;aspect=fixed;pointerEvents=1;shape=mxgraph.aws4.nat_gateway;direction=west;rotation=-90;" vertex="1" parent="1">
          <mxGeometry x="-362" y="200" width="52" height="52" as="geometry" />
        </mxCell>
        <mxCell id="OHWyew3xRLbBPNJDqq6j-82" style="edgeStyle=orthogonalEdgeStyle;rounded=0;orthogonalLoop=1;jettySize=auto;html=1;" edge="1" parent="1" source="OHWyew3xRLbBPNJDqq6j-84" target="OHWyew3xRLbBPNJDqq6j-85">
          <mxGeometry relative="1" as="geometry" />
        </mxCell>
        <mxCell id="OHWyew3xRLbBPNJDqq6j-83" value="HTTP" style="edgeLabel;html=1;align=center;verticalAlign=middle;resizable=0;points=[];" vertex="1" connectable="0" parent="OHWyew3xRLbBPNJDqq6j-82">
          <mxGeometry x="0.0156" y="-4" relative="1" as="geometry">
            <mxPoint as="offset" />
          </mxGeometry>
        </mxCell>
        <mxCell id="OHWyew3xRLbBPNJDqq6j-84" value="Actor" style="shape=umlActor;verticalLabelPosition=bottom;verticalAlign=top;html=1;outlineConnect=0;" vertex="1" parent="1">
          <mxGeometry x="-800" y="360" width="30" height="60" as="geometry" />
        </mxCell>
        <mxCell id="OHWyew3xRLbBPNJDqq6j-85" value="" style="sketch=0;points=[[0,0,0],[0.25,0,0],[0.5,0,0],[0.75,0,0],[1,0,0],[0,1,0],[0.25,1,0],[0.5,1,0],[0.75,1,0],[1,1,0],[0,0.25,0],[0,0.5,0],[0,0.75,0],[1,0.25,0],[1,0.5,0],[1,0.75,0]];outlineConnect=0;fontColor=#232F3E;fillColor=#8C4FFF;strokeColor=#ffffff;dashed=0;verticalLabelPosition=bottom;verticalAlign=top;align=center;html=1;fontSize=12;fontStyle=0;aspect=fixed;shape=mxgraph.aws4.resourceIcon;resIcon=mxgraph.aws4.api_gateway;" vertex="1" parent="1">
          <mxGeometry x="-620" y="370" width="40" height="40" as="geometry" />
        </mxCell>
        <mxCell id="OHWyew3xRLbBPNJDqq6j-86" style="edgeStyle=orthogonalEdgeStyle;rounded=0;orthogonalLoop=1;jettySize=auto;html=1;entryX=0.537;entryY=-0.041;entryDx=0;entryDy=0;entryPerimeter=0;" edge="1" parent="1" source="OHWyew3xRLbBPNJDqq6j-85" target="OHWyew3xRLbBPNJDqq6j-70">
          <mxGeometry relative="1" as="geometry" />
        </mxCell>
        <mxCell id="OHWyew3xRLbBPNJDqq6j-87" value="" style="shape=rect;fillColor=none;aspect=fixed;resizable=0;labelPosition=right;verticalLabelPosition=middle;align=left;verticalAlign=middle;strokeColor=none;part=1;spacingLeft=5;fontSize=11;" vertex="1" parent="1">
          <mxGeometry x="-600" y="80" width="48" height="48" as="geometry" />
        </mxCell>
        <mxCell id="OHWyew3xRLbBPNJDqq6j-88" value="" style="fillColor=#1192E8;shape=mxgraph.ibm_cloud.network--public;strokeColor=none;dashed=0;outlineConnect=0;html=1;labelPosition=center;verticalLabelPosition=bottom;verticalAlign=top;part=1;movable=0;resizable=0;rotatable=0;" vertex="1" parent="OHWyew3xRLbBPNJDqq6j-87">
          <mxGeometry width="24" height="24" relative="1" as="geometry">
            <mxPoint x="12" y="12" as="offset" />
          </mxGeometry>
        </mxCell>
        <mxCell id="OHWyew3xRLbBPNJDqq6j-89" value="" style="shape=rect;fillColor=#1192E8;aspect=fixed;resizable=0;labelPosition=right;verticalLabelPosition=middle;align=left;verticalAlign=middle;strokeColor=none;part=1;spacingLeft=5;fontSize=14;" vertex="1" parent="1">
          <mxGeometry x="-600" y="115" width="4" height="48" as="geometry" />
        </mxCell>
        <mxCell id="OHWyew3xRLbBPNJDqq6j-90" value="Public Network" style="text;html=1;align=center;verticalAlign=middle;whiteSpace=wrap;rounded=0;" vertex="1" parent="1">
          <mxGeometry x="-600" y="120" width="60" height="30" as="geometry" />
        </mxCell>
      </root>
    </mxGraphModel>
  </diagram>
</mxfile>
